<svg width="24" height="24" viewBox="0 0 24 24" fill="none" xmlns="http://www.w3.org/2000/svg">
<g clip-path="url(#clip0_3_10)">
<path d="M0.380001 10.377L0.108001 10.34C0.0600006 10.684 0.0260005 11.035 0.00700055 11.381L0.282001 11.397C0.300001 11.057 0.333001 10.715 0.380001 10.377ZM4.136 3.289L3.952 3.084C3.694 3.316 3.443 3.564 3.206 3.818L3.408 4.006C3.639 3.758 3.884 3.516 4.136 3.289ZM5.769 2.059L5.623 1.824C5.327 2.01 5.037 2.209 4.76 2.418L4.926 2.637C5.196 2.434 5.48 2.238 5.769 2.059ZM1.824 18.369C2.009 18.666 2.208 18.955 2.417 19.232L2.637 19.068C2.432 18.797 2.238 18.513 2.057 18.224L1.824 18.369V18.369ZM1.127 16.402L0.872001 16.506C1.001 16.824 1.146 17.141 1.303 17.449L1.308 17.459L1.553 17.334L1.548 17.324C1.395 17.023 1.253 16.713 1.127 16.402ZM0.298001 9.309L0.567001 9.372C0.643001 9.04 0.735001 8.708 0.839001 8.386L0.578001 8.299C0.470001 8.631 0.376001 8.971 0.298001 9.309V9.309ZM0.274001 12.42L-0.000999451 12.43C0.0110005 12.778 0.0390006 13.129 0.0820006 13.473L0.355001 13.44C0.313001 13.104 0.286001 12.76 0.274001 12.42ZM0.256001 14.506C0.329001 14.846 0.418001 15.188 0.520001 15.52L0.783001 15.44C0.683001 15.114 0.596001 14.782 0.525001 14.45L0.256001 14.506V14.506ZM11.573 0.275L11.563 0C11.215 0.012 10.864 0.039 10.519 0.082L10.553 0.355C10.891 0.314 11.233 0.287 11.573 0.275ZM23.221 8.566C23.321 8.892 23.407 9.226 23.477 9.558L23.747 9.499C23.675 9.159 23.587 8.817 23.485 8.485L23.221 8.566ZM17.621 1.389C17.312 1.225 16.994 1.075 16.674 0.94L16.567 1.192C16.881 1.325 17.192 1.473 17.493 1.631L17.621 1.389ZM15.693 0.572C15.361 0.467 15.023 0.373 14.683 0.295L14.62 0.563C14.952 0.639 15.284 0.731 15.608 0.836L15.693 0.572ZM6.674 1.545C6.972 1.395 7.28 1.254 7.59 1.127L7.486 0.873C7.169 1 6.854 1.145 6.549 1.301L6.534 1.309L6.659 1.553L6.674 1.545V1.545ZM23.727 11.588L24.002 11.578C23.9902 11.2286 23.9628 10.8799 23.92 10.533L23.647 10.566C23.688 10.904 23.715 11.248 23.727 11.588V11.588ZM13.654 0.105C13.308 0.058 12.958 0.025 12.611 0.007L12.597 0.28C12.936 0.298 13.28 0.331 13.616 0.378L13.654 0.105V0.105ZM9.544 0.527L9.486 0.257C9.146 0.329 8.805 0.417 8.472 0.521L8.553 0.783C8.878 0.684 9.212 0.598 9.544 0.527ZM1.921 5.469L2.152 5.619C2.337 5.334 2.536 5.053 2.744 4.785L2.527 4.615C2.314 4.891 2.11 5.178 1.921 5.469V5.469ZM0.943001 7.318L1.196 7.425C1.328 7.112 1.476 6.8 1.635 6.501L1.392 6.373C1.229 6.68 1.078 6.998 0.943001 7.318V7.318ZM18.223 21.943L18.368 22.177C18.663 21.991 18.954 21.792 19.231 21.583L19.067 21.364C18.795 21.568 18.51 21.764 18.223 21.943V21.943ZM21.248 19.219L21.465 19.389C21.68 19.116 21.883 18.828 22.072 18.535L21.842 18.387C21.656 18.672 21.457 18.951 21.248 19.219V19.219ZM19.855 20.715L20.039 20.918C20.297 20.688 20.549 20.439 20.785 20.186L20.584 19.998C20.354 20.246 20.107 20.486 19.855 20.715ZM22.359 17.504L22.603 17.633C22.765 17.326 22.917 17.008 23.052 16.688L22.798 16.581C22.6657 16.8951 22.5192 17.2031 22.359 17.504V17.504ZM23.617 13.629L23.89 13.668C23.939 13.322 23.972 12.973 23.992 12.625L23.717 12.611C23.699 12.949 23.666 13.293 23.617 13.629V13.629ZM23.156 15.621L23.42 15.707C23.527 15.375 23.621 15.037 23.699 14.697L23.431 14.634C23.354 14.967 23.262 15.299 23.156 15.621ZM22.453 6.672C22.607 6.975 22.75 7.289 22.877 7.604L23.133 7.5C23.002 7.178 22.856 6.857 22.697 6.547L22.453 6.672ZM8.296 23.418C8.627 23.525 8.966 23.619 9.305 23.697L9.367 23.429C9.036 23.353 8.704 23.261 8.381 23.156L8.296 23.418V23.418ZM10.335 23.889C10.68 23.938 11.031 23.971 11.378 23.991L11.392 23.716C11.053 23.698 10.71 23.665 10.373 23.618L10.335 23.889V23.889ZM17.326 22.449C17.023 22.603 16.713 22.746 16.4 22.873L16.504 23.129C16.822 22.998 17.143 22.854 17.451 22.695L17.455 22.693L17.332 22.447L17.326 22.449ZM4.613 21.467C4.887 21.68 5.175 21.885 5.467 22.072L5.616 21.842C5.331 21.658 5.051 21.457 4.783 21.25L4.613 21.467ZM12.417 23.725L12.426 24C12.774 23.986 13.125 23.959 13.471 23.916L13.436 23.645C13.1 23.686 12.756 23.713 12.417 23.725V23.725ZM6.37 22.604C6.677 22.766 6.995 22.918 7.316 23.053L7.423 22.799C7.11 22.666 6.799 22.52 6.499 22.36L6.37 22.604V22.604ZM3.083 20.041C3.316 20.299 3.563 20.551 3.817 20.787L4.005 20.586C3.756 20.356 3.515 20.109 3.288 19.857L3.083 20.041V20.041ZM14.445 23.475L14.504 23.745C14.844 23.671 15.184 23.583 15.518 23.479L15.436 23.217C15.111 23.316 14.777 23.402 14.445 23.475V23.475ZM21.18 0.129C20.4668 0.129 19.7829 0.412305 19.2786 0.91659C18.7743 1.42088 18.491 2.10483 18.491 2.818C18.491 3.53117 18.7743 4.21512 19.2786 4.71941C19.7829 5.2237 20.4668 5.507 21.18 5.507C21.8932 5.507 22.5771 5.2237 23.0814 4.71941C23.5857 4.21512 23.869 3.53117 23.869 2.818C23.869 2.10483 23.5857 1.42088 23.0814 0.91659C22.5771 0.412305 21.8932 0.129 21.18 0.129V0.129ZM15.324 15.447C15.324 15.918 15.638 16.107 16.176 16.107C16.846 16.107 17.473 15.711 17.473 15.091V14.446C17.243 14.553 17.094 14.587 16.366 14.686C15.631 14.795 15.324 14.992 15.324 15.447ZM12 2.818C6.93 2.818 2.82 6.927 2.82 11.998C2.82 17.066 6.93 21.178 12 21.178C17.07 21.178 21.18 17.067 21.18 11.998C21.18 6.928 17.07 2.818 12 2.818V2.818ZM9.513 16.588H5.771V10.565H6.54V15.911H9.514V16.588H9.513ZM13.643 16.588H13.024V15.918C12.619 16.488 12.213 16.711 11.578 16.711C10.735 16.711 10.198 16.248 10.198 15.529V12.258H10.884V15.258C10.884 15.778 11.231 16.108 11.777 16.108C12.496 16.108 12.958 15.53 12.958 14.647V12.258H13.644V16.588H13.643ZM13.113 8.195C13.113 6.711 14.318 5.506 15.802 5.506C17.286 5.506 18.49 6.711 18.49 8.195C18.49 9.679 17.287 10.883 15.802 10.883C14.317 10.883 13.113 9.68 13.113 8.195ZM18.68 16.051V16.571C18.457 16.63 18.35 16.645 18.209 16.645C17.869 16.645 17.572 16.407 17.498 16.075C17.117 16.481 16.58 16.712 16.027 16.712C15.15 16.712 14.605 16.249 14.605 15.464C14.605 14.937 14.861 14.548 15.365 14.341C15.631 14.234 15.779 14.2 16.754 14.077C17.299 14.011 17.473 13.886 17.473 13.597V13.415C17.473 13.003 17.125 12.77 16.506 12.77C15.861 12.77 15.549 13.01 15.49 13.54H14.797C14.838 12.54 15.483 12.136 16.531 12.136C17.597 12.136 18.158 12.548 18.158 13.318V15.73C18.158 15.945 18.291 16.068 18.531 16.068C18.572 16.066 18.605 16.066 18.68 16.051V16.051Z" fill="white"/>
</g>
<defs>
<clipPath id="clip0_3_10">
<rect width="24" height="24" fill="white"/>
</clipPath>
</defs>
</svg>
